<?xml version="1.0" encoding="utf-8"?>
<!-- Generator: Adobe Illustrator 22.0.0, SVG Export Plug-In . SVG Version: 6.00 Build 0)  -->
<svg version="1.1" id="Layer_1" xmlns="http://www.w3.org/2000/svg" xmlns:xlink="http://www.w3.org/1999/xlink" x="0px" y="0px"
	 viewBox="0 0 60 34" style="enable-background:new 0 0 60 34;" xml:space="preserve">
<style type="text/css">
	.st0{fill:#939598;}
	.st1{enable-background:new    ;}
	.st2{fill:#2E3192;}
	.st3{fill:#FFFFFF;}
	.st4{fill:none;stroke:#FFFFFF;stroke-miterlimit:10;}
</style>
<g>
	<circle class="st0" cx="16.6" cy="17" r="16.6"/>
	<g class="st1">
		<path class="st2" d="M45.3,13.4c0,0.3,0,0.6-0.1,0.7c-0.1,0.1-0.2,0.2-0.3,0.2h-1.8c0.3,0.3,0.6,0.7,0.7,1.1
			c0.1,0.4,0.2,0.8,0.2,1.3c0,0.7-0.1,1.4-0.4,2c-0.2,0.6-0.6,1.1-1,1.4c-0.4,0.4-1,0.7-1.6,0.9c-0.6,0.2-1.3,0.3-2,0.3
			c-0.5,0-1-0.1-1.5-0.2c-0.5-0.1-0.8-0.3-1.1-0.5c-0.2,0.2-0.3,0.4-0.4,0.6c-0.1,0.2-0.2,0.5-0.2,0.8c0,0.3,0.2,0.6,0.5,0.8
			c0.3,0.2,0.7,0.3,1.2,0.4l3.3,0.1c0.6,0,1.2,0.1,1.8,0.3c0.5,0.2,1,0.4,1.4,0.7c0.4,0.3,0.7,0.6,0.9,1.1c0.2,0.4,0.3,0.9,0.3,1.5
			c0,0.6-0.1,1.1-0.4,1.7c-0.2,0.5-0.6,1-1.1,1.4c-0.5,0.4-1.2,0.7-1.9,1c-0.8,0.2-1.7,0.3-2.8,0.3c-1,0-1.9-0.1-2.6-0.3
			c-0.7-0.2-1.3-0.4-1.8-0.7c-0.5-0.3-0.8-0.7-1-1.1c-0.2-0.4-0.3-0.9-0.3-1.4c0-0.3,0-0.6,0.1-0.9c0.1-0.3,0.2-0.6,0.3-0.8
			c0.2-0.3,0.4-0.5,0.6-0.8c0.2-0.2,0.5-0.5,0.8-0.7c-0.5-0.2-0.8-0.5-1-0.9s-0.3-0.8-0.3-1.2c0-0.6,0.1-1.1,0.4-1.6
			c0.2-0.5,0.5-0.9,0.9-1.2c-0.3-0.4-0.5-0.7-0.7-1.2c-0.2-0.4-0.3-1-0.3-1.6c0-0.7,0.1-1.4,0.4-2c0.2-0.6,0.6-1.1,1-1.5
			c0.4-0.4,1-0.7,1.6-0.9c0.6-0.2,1.3-0.3,2-0.3c0.4,0,0.8,0,1.1,0.1c0.3,0,0.7,0.1,0.9,0.2h3.9c0.2,0,0.3,0.1,0.4,0.2
			C45.2,12.8,45.3,13.1,45.3,13.4z M42.8,26.9c0-0.6-0.2-1-0.7-1.3s-1.1-0.5-1.8-0.5L36.9,25c-0.3,0.2-0.6,0.5-0.7,0.7
			c-0.2,0.2-0.3,0.4-0.5,0.6c-0.1,0.2-0.2,0.4-0.2,0.6c0,0.2-0.1,0.4-0.1,0.6c0,0.6,0.3,1.1,0.9,1.4s1.5,0.5,2.6,0.5
			c0.7,0,1.3-0.1,1.8-0.2c0.5-0.1,0.9-0.3,1.2-0.5c0.3-0.2,0.5-0.5,0.6-0.8C42.7,27.5,42.8,27.2,42.8,26.9z M41.6,16.8
			c0-0.9-0.2-1.6-0.7-2c-0.5-0.5-1.2-0.7-2-0.7c-0.5,0-0.9,0.1-1.2,0.2c-0.3,0.2-0.6,0.4-0.8,0.6c-0.2,0.3-0.4,0.6-0.5,0.9
			c-0.1,0.3-0.2,0.7-0.2,1.1c0,0.8,0.2,1.5,0.7,2c0.5,0.5,1.2,0.7,2,0.7c0.5,0,0.9-0.1,1.2-0.2c0.3-0.1,0.6-0.4,0.8-0.6
			c0.2-0.3,0.4-0.6,0.5-0.9C41.5,17.5,41.6,17.1,41.6,16.8z"/>
		<path class="st2" d="M60,19.1c0,1-0.1,2-0.4,2.9c-0.3,0.9-0.7,1.6-1.2,2.3c-0.5,0.6-1.2,1.1-2.1,1.5c-0.8,0.4-1.8,0.5-2.9,0.5
			c-1.1,0-2-0.2-2.8-0.5c-0.8-0.3-1.4-0.8-2-1.4c-0.5-0.6-0.9-1.3-1.2-2.2s-0.4-1.8-0.4-2.9c0-1,0.1-2,0.4-2.9
			c0.3-0.9,0.7-1.6,1.2-2.3c0.5-0.6,1.2-1.1,2-1.5c0.8-0.4,1.8-0.5,2.9-0.5c1.1,0,2,0.2,2.8,0.5c0.8,0.3,1.4,0.8,2,1.4
			c0.5,0.6,0.9,1.3,1.2,2.2C59.9,17,60,18,60,19.1z M57.6,19.2c0-0.7-0.1-1.3-0.2-2c-0.1-0.6-0.3-1.2-0.6-1.6
			c-0.3-0.5-0.7-0.8-1.2-1.1c-0.5-0.3-1.1-0.4-1.9-0.4c-0.7,0-1.3,0.1-1.8,0.4c-0.5,0.2-0.9,0.6-1.2,1c-0.3,0.5-0.6,1-0.7,1.6
			c-0.2,0.6-0.2,1.3-0.2,2c0,0.7,0.1,1.4,0.2,2c0.1,0.6,0.3,1.2,0.6,1.6c0.3,0.5,0.7,0.8,1.2,1.1c0.5,0.3,1.1,0.4,1.9,0.4
			c0.7,0,1.3-0.1,1.8-0.4c0.5-0.2,0.9-0.6,1.3-1c0.3-0.4,0.6-1,0.7-1.6C57.5,20.6,57.6,20,57.6,19.2z"/>
	</g>
	<g class="st1">
		<path class="st3" d="M15.8,24.9c0,0.2,0,0.3,0,0.5c0,0.1,0,0.2-0.1,0.3c0,0.1-0.1,0.2-0.2,0.2c-0.1,0-0.1,0.1-0.2,0.1H7.2
			c-0.2,0-0.4-0.1-0.6-0.2c-0.2-0.1-0.3-0.4-0.3-0.8V7.9c0-0.1,0-0.1,0.1-0.2c0-0.1,0.1-0.1,0.2-0.1c0.1,0,0.2-0.1,0.4-0.1
			c0.2,0,0.4,0,0.6,0c0.2,0,0.4,0,0.6,0c0.2,0,0.3,0.1,0.4,0.1c0.1,0,0.2,0.1,0.2,0.1c0,0.1,0.1,0.1,0.1,0.2v15.9h6.6
			c0.1,0,0.2,0,0.2,0.1c0.1,0,0.1,0.1,0.2,0.2c0,0.1,0.1,0.2,0.1,0.3C15.8,24.6,15.8,24.7,15.8,24.9z"/>
		<path class="st3" d="M30.2,19.1c0,1-0.1,2-0.4,2.9c-0.3,0.9-0.7,1.6-1.2,2.3c-0.5,0.6-1.2,1.1-2.1,1.5c-0.8,0.4-1.8,0.5-2.9,0.5
			c-1.1,0-2-0.2-2.8-0.5c-0.8-0.3-1.4-0.8-2-1.4c-0.5-0.6-0.9-1.3-1.2-2.2c-0.3-0.9-0.4-1.8-0.4-2.9c0-1,0.1-2,0.4-2.9
			c0.3-0.9,0.7-1.6,1.2-2.3c0.5-0.6,1.2-1.1,2-1.5c0.8-0.4,1.8-0.5,2.9-0.5c1.1,0,2,0.2,2.8,0.5c0.8,0.3,1.4,0.8,2,1.4
			c0.5,0.6,0.9,1.3,1.2,2.2C30.1,17,30.2,18,30.2,19.1z M27.8,19.2c0-0.7-0.1-1.3-0.2-2c-0.1-0.6-0.3-1.2-0.6-1.6
			c-0.3-0.5-0.7-0.8-1.2-1.1c-0.5-0.3-1.1-0.4-1.9-0.4c-0.7,0-1.3,0.1-1.8,0.4c-0.5,0.2-0.9,0.6-1.2,1c-0.3,0.5-0.6,1-0.7,1.6
			c-0.2,0.6-0.2,1.3-0.2,2c0,0.7,0.1,1.4,0.2,2s0.3,1.2,0.6,1.6c0.3,0.5,0.7,0.8,1.2,1.1c0.5,0.3,1.1,0.4,1.9,0.4
			c0.7,0,1.3-0.1,1.8-0.4c0.5-0.2,0.9-0.6,1.3-1c0.3-0.4,0.6-1,0.7-1.6C27.7,20.6,27.8,20,27.8,19.2z"/>
	</g>
	<circle class="st4" cx="16.6" cy="17" r="14.1"/>
</g>
</svg>
